<?xml version="1.0" encoding="UTF-8" standalone="no"?>
<!-- Generator: Adobe Illustrator 16.0.0, SVG Export Plug-In . SVG Version: 6.00 Build 0)  -->

<svg
   xmlns:dc="http://purl.org/dc/elements/1.1/"
   xmlns:cc="http://creativecommons.org/ns#"
   xmlns:rdf="http://www.w3.org/1999/02/22-rdf-syntax-ns#"
   xmlns:svg="http://www.w3.org/2000/svg"
   xmlns="http://www.w3.org/2000/svg"
   xmlns:sodipodi="http://sodipodi.sourceforge.net/DTD/sodipodi-0.dtd"
   xmlns:inkscape="http://www.inkscape.org/namespaces/inkscape"
   version="1.1"
   x="0px"
   y="0px"
   width="24px"
   height="24px"
   viewBox="0 0 24 24"
   style="enable-background:new 0 0 24 24;"
   xml:space="preserve"
   id="svg5"
   sodipodi:docname="white_menu.svg"
   inkscape:version="0.92.4 (5da689c313, 2019-01-14)"><metadata
   id="metadata11"><rdf:RDF><cc:Work
       rdf:about=""><dc:format>image/svg+xml</dc:format><dc:type
         rdf:resource="http://purl.org/dc/dcmitype/StillImage" /><dc:title></dc:title></cc:Work></rdf:RDF></metadata><defs
   id="defs9">
	
</defs><sodipodi:namedview
   pagecolor="#ffffff"
   bordercolor="#666666"
   borderopacity="1"
   objecttolerance="10"
   gridtolerance="10"
   guidetolerance="10"
   inkscape:pageopacity="0"
   inkscape:pageshadow="2"
   inkscape:window-width="1111"
   inkscape:window-height="606"
   id="namedview7"
   showgrid="false"
   inkscape:zoom="9.8333333"
   inkscape:cx="12"
   inkscape:cy="12"
   inkscape:window-x="0"
   inkscape:window-y="27"
   inkscape:window-maximized="0"
   inkscape:current-layer="svg5" />
<path
   inkscape:connector-curvature="0"
   d="m 6,15 h 12 c 0.553,0 1,0.447 1,1 v 1 c 0,0.553 -0.447,1 -1,1 H 6 C 5.447,18 5,17.553 5,17 V 16 C 5,15.447 5.447,15 6,15 Z M 5,11 v 1 c 0,0.553 0.447,1 1,1 h 12 c 0.553,0 1,-0.447 1,-1 v -1 c 0,-0.553 -0.447,-1 -1,-1 H 6 C 5.447,10 5,10.447 5,11 Z M 5,6 v 1 c 0,0.553 0.447,1 1,1 h 12 c 0.553,0 1,-0.447 1,-1 V 6 C 19,5.447 18.553,5 18,5 H 6 C 5.447,5 5,5.447 5,6 Z"
   id="menu"
   style="fill:#ffffff;fill-opacity:1" />
<g
   id="Guides"
   style="display:none;">
</g>
</svg>